<svg width="18" height="18" viewBox="0 0 18 18" fill="none" xmlns="http://www.w3.org/2000/svg">
<path d="M9 0.75C7.36831 0.75 5.77325 1.23385 4.41655 2.14038C3.05984 3.0469 2.00242 4.33537 1.378 5.84286C0.753575 7.35035 0.590197 9.00915 0.908525 10.6095C1.22685 12.2098 2.01259 13.6798 3.16637 14.8336C4.32016 15.9874 5.79017 16.7731 7.39051 17.0915C8.99085 17.4098 10.6497 17.2464 12.1571 16.622C13.6646 15.9976 14.9531 14.9402 15.8596 13.5835C16.7661 12.2267 17.25 10.6317 17.25 9C17.2474 6.81276 16.3774 4.71583 14.8308 3.16922C13.2842 1.6226 11.1872 0.75258 9 0.75ZM9 2.25C10.1094 2.25066 11.2015 2.52474 12.1798 3.048C13.158 3.57126 13.9922 4.32756 14.6085 5.25H3.3915C4.00783 4.32756 4.84202 3.57126 5.82025 3.048C6.79849 2.52474 7.89061 2.25066 9 2.25ZM2.64675 11.2567C3.18111 11.2737 3.7057 11.4044 4.18552 11.6402C4.66535 11.8759 5.08936 12.2113 5.42925 12.624C6.02021 13.3335 6.31775 14.2419 6.261 15.1635C5.42601 14.7901 4.6753 14.2514 4.05413 13.5799C3.43297 12.9085 2.95422 12.1182 2.64675 11.2567ZM11.739 15.1635C11.6819 14.2419 11.9795 13.3333 12.5708 12.624C12.9106 12.2113 13.3346 11.8759 13.8145 11.6401C14.2943 11.4043 14.8189 11.2736 15.3533 11.2567C15.0458 12.1182 14.567 12.9085 13.9459 13.5799C13.3247 14.2514 12.574 14.7901 11.739 15.1635ZM15.75 9C15.7493 9.25063 15.7345 9.50102 15.7058 9.75C14.8904 9.7146 14.078 9.86961 13.333 10.2027C12.588 10.5359 11.9308 11.038 11.4135 11.6692C10.9611 12.214 10.6271 12.8469 10.4328 13.5278C10.2385 14.2087 10.1881 14.9226 10.2848 15.624C9.43649 15.792 8.56351 15.792 7.71525 15.624C7.81195 14.9226 7.76152 14.2087 7.56719 13.5278C7.37286 12.8469 7.03887 12.214 6.5865 11.6692C6.06651 11.0412 5.40882 10.5413 4.66445 10.2085C3.92008 9.87566 3.10905 9.71877 2.29425 9.75C2.17595 8.73643 2.29562 7.70923 2.64375 6.75H15.3563C15.6153 7.47194 15.7485 8.23299 15.75 9ZM7.875 9.375C7.875 9.1525 7.94098 8.93499 8.0646 8.74998C8.18822 8.56498 8.36392 8.42078 8.56948 8.33563C8.77505 8.25049 9.00125 8.22821 9.21948 8.27162C9.43771 8.31502 9.63816 8.42217 9.7955 8.5795C9.95283 8.73684 10.06 8.93729 10.1034 9.15552C10.1468 9.37375 10.1245 9.59995 10.0394 9.80552C9.95422 10.0111 9.81003 10.1868 9.62502 10.3104C9.44001 10.434 9.22251 10.5 9 10.5C8.70163 10.5 8.41549 10.3815 8.20451 10.1705C7.99353 9.95952 7.875 9.67337 7.875 9.375Z" fill="white"/>
</svg>
