<svg width="18" height="13" viewBox="0 0 18 13" fill="none" xmlns="http://www.w3.org/2000/svg">
<path d="M17.572 5.68642C15.6859 2.39185 12.4898 0.224609 8.86423 0.224609C5.23868 0.224609 2.04263 2.39185 0.156583 5.68642C0.106271 5.77461 0.00568233 5.99095 0.00028067 6.20622C-0.00567501 6.42201 0.0846297 6.63621 0.130613 6.71737C2.0134 10.0374 5.22192 12.2246 8.86423 12.2246C12.5065 12.2246 15.7151 10.0374 17.5979 6.71737C17.6439 6.63621 17.7342 6.42205 17.7283 6.20622C17.7229 5.99095 17.6223 5.77461 17.572 5.68642ZM8.86423 10.2861C6.64661 10.2861 4.84876 8.48822 4.84876 6.27059C4.84876 4.05297 6.64661 2.25505 8.86423 2.25505C11.0819 2.25505 12.8798 4.05297 12.8798 6.27059C12.8798 8.48822 11.0819 10.2861 8.86423 10.2861Z" fill="#D9D9D9"/>
<path d="M8.86444 3.60632C8.42687 3.60632 8.0196 3.72204 7.65558 3.90916L8.63674 6.13274L6.37698 5.33818C6.2677 5.62918 6.20007 5.9413 6.20007 6.27073C6.20007 7.7414 7.39381 8.93513 8.86448 8.93513C10.3352 8.93513 11.5288 7.7414 11.5288 6.27073C11.5288 4.80006 10.3352 3.60632 8.86444 3.60632Z" fill="#D9D9D9"/>
</svg>
