<svg width="18" height="13" viewBox="0 0 18 13" fill="none" xmlns="http://www.w3.org/2000/svg">
<path d="M16 0H2C1.46957 0 0.960859 0.210714 0.585786 0.585786C0.210714 0.960859 0 1.46957 0 2L0 4.5H18V2C18 1.46957 17.7893 0.960859 17.4142 0.585786C17.0391 0.210714 16.5304 0 16 0Z" fill="#CC212D"/>
<path d="M7.7115 8.5H10.304L9.008 7.558L7.7115 8.5ZM9.505 6.0295H11.1125L9.812 6.974L10.3075 8.5H18V4.5H9.008L9.505 6.0295ZM8.204 6.974L6.9035 6.0295H8.511L9.008 4.5H0V8.5H7.708L8.204 6.974Z" fill="#F89623"/>
<path d="M10.3085 8.50312L10.304 8.50012H7.711L7.7065 8.50312L7.708 8.50012H0V11.0001C0 11.5306 0.210714 12.0393 0.585786 12.4143C0.960859 12.7894 1.46957 13.0001 2 13.0001H16C16.5304 13.0001 17.0391 12.7894 17.4142 12.4143C17.7893 12.0393 18 11.5306 18 11.0001V8.50012H10.3075L10.3085 8.50312Z" fill="#288541"/>
<path d="M6.90332 6.0295L8.20382 6.974L7.70782 8.5L7.70682 8.503L7.71132 8.5L9.00782 7.558L10.3038 8.5L10.3083 8.503L10.3073 8.5L9.81182 6.974L11.1123 6.0295H9.50482L9.00782 4.5L8.51082 6.0295H6.90332Z" fill="black"/>
</svg>
