<svg width="20" height="21" viewBox="0 0 20 21" fill="none" xmlns="http://www.w3.org/2000/svg">
<path d="M4.1665 17.9999C7.67482 14.0405 11.6175 8.7895 17.4998 12.7278" stroke="#009206" stroke-width="1.5"/>
<path d="M14.1665 4.25008C14.5761 3.82867 15.6663 2.16675 16.2498 2.16675M18.3332 4.25008C17.9236 3.82867 16.8334 2.16675 16.2498 2.16675M16.2498 2.16675V8.83341" stroke="#009206" stroke-width="1.5" stroke-linecap="round" stroke-linejoin="round"/>
<path d="M17.4998 11.3333C17.4982 14.7892 17.4559 16.5586 16.3405 17.674C15.1811 18.8333 13.3151 18.8333 9.58317 18.8333C5.85122 18.8333 3.98524 18.8333 2.82587 17.674C1.6665 16.5146 1.6665 14.6486 1.6665 10.9167C1.6665 7.18471 1.6665 5.31874 2.82587 4.15937C3.98524 3 5.85122 3 9.58317 3C9.72472 3 11.6665 3.00006 11.6665 3.00006" stroke="#009206" stroke-width="1.5" stroke-linecap="round"/>
</svg>
