<svg width="18" height="18" viewBox="0 0 18 18" fill="none" xmlns="http://www.w3.org/2000/svg">
<path d="M15.375 10.5C15.375 13.3284 15.375 14.7426 14.4414 15.6213C13.5078 16.5 12.0052 16.5 9 16.5H8.42046C5.97455 16.5 4.7516 16.5 3.9023 15.9016C3.65897 15.7302 3.44293 15.5269 3.26078 15.2978C2.625 14.4985 2.625 13.3475 2.625 11.0455V9.13636C2.625 6.91399 2.625 5.8028 2.9767 4.91531C3.54211 3.48857 4.73785 2.36316 6.25377 1.83101C7.19672 1.5 8.37736 1.5 10.7386 1.5C12.0879 1.5 12.7626 1.5 13.3014 1.68915C14.1677 1.99324 14.8509 2.63632 15.174 3.45161C15.375 3.95874 15.375 4.59371 15.375 5.86364V10.5Z" fill="#D4D7E0"/>
<path d="M3.35037 4.91372C3.04903 5.67412 3.00588 6.59875 2.9997 8.24583C3.25189 7.61998 4.42737 6.3734 7.12367 6.3734C7.34973 6.3734 7.94272 6.14597 7.91203 4.91372C7.89943 3.79188 8.31138 1.56456 10.0458 1.49984C8.37175 1.50723 7.4164 1.55246 6.62744 1.82942C5.11152 2.36157 3.91578 3.48697 3.35037 4.91372Z" fill="white"/>
<path d="M12 12.7499L6.75 12.7499" stroke="#221E20" stroke-width="1.5" stroke-linecap="round" stroke-linejoin="round"/>
<path d="M12 9.74988L9.75 9.74988" stroke="#221E20" stroke-width="1.5" stroke-linecap="round" stroke-linejoin="round"/>
<path d="M15.375 10.5C15.375 13.3284 15.375 14.7426 14.4414 15.6213C13.5078 16.5 12.0052 16.5 9 16.5H8.42046C5.97455 16.5 4.7516 16.5 3.9023 15.9016C3.65896 15.7302 3.44294 15.5269 3.26078 15.2978C2.625 14.4985 2.625 13.3475 2.625 11.0455V9.13636C2.625 6.91398 2.625 5.8028 2.9767 4.91531C3.54211 3.48857 4.73785 2.36316 6.25377 1.83101C7.19672 1.5 8.37736 1.5 10.7386 1.5C12.0879 1.5 12.7626 1.5 13.3014 1.68915C14.1677 1.99324 14.8509 2.63632 15.174 3.45161C15.375 3.95874 15.375 4.59371 15.375 5.86364V10.5Z" stroke="#221E20" stroke-width="1.5" stroke-linejoin="round"/>
<path d="M2.625 9C2.625 7.61929 3.74429 6.5 5.125 6.5C5.62434 6.5 6.21303 6.58749 6.69852 6.45741C7.12989 6.34182 7.46682 6.00489 7.58241 5.57352C7.7125 5.08803 7.625 4.49934 7.625 4C7.625 2.61929 8.74429 1.5 10.125 1.5" stroke="#221E20" stroke-width="1.5" stroke-linecap="round" stroke-linejoin="round"/>
</svg>
