<svg width="20" height="17" viewBox="0 0 20 17" fill="none" xmlns="http://www.w3.org/2000/svg">
<path fill-rule="evenodd" clip-rule="evenodd" d="M19.7071 7.79289C20.0976 8.18342 20.0976 8.81658 19.7071 9.20711L15.7071 13.2071C15.3166 13.5976 14.6834 13.5976 14.2929 13.2071C13.9024 12.8166 13.9024 12.1834 14.2929 11.7929L17.5858 8.5L14.2929 5.20711C13.9024 4.81658 13.9024 4.18342 14.2929 3.79289C14.6834 3.40237 15.3166 3.40237 15.7071 3.79289L19.7071 7.79289Z" fill="#2F2F2F"/>
<path fill-rule="evenodd" clip-rule="evenodd" d="M20 8.5C20 9.05228 19.5523 9.5 19 9.5L7 9.5C6.44771 9.5 6 9.05228 6 8.5C6 7.94771 6.44771 7.5 7 7.5L19 7.5C19.5523 7.5 20 7.94772 20 8.5Z" fill="#2F2F2F"/>
<path fill-rule="evenodd" clip-rule="evenodd" d="M10 1.5C10 2.05228 9.55228 2.5 9 2.5L4 2.5C2.89543 2.5 2 3.39543 2 4.5L2 12.5C2 13.6046 2.89543 14.5 4 14.5L9 14.5C9.55228 14.5 10 14.9477 10 15.5C10 16.0523 9.55228 16.5 9 16.5L4 16.5C1.79086 16.5 -6.21101e-07 14.7091 -5.24537e-07 12.5L-1.74846e-07 4.5C-7.8281e-08 2.29086 1.79086 0.5 4 0.5L9 0.5C9.55228 0.5 10 0.947715 10 1.5Z" fill="#2F2F2F"/>
</svg>
