<svg width="16" height="16" viewBox="0 0 16 16" fill="none" xmlns="http://www.w3.org/2000/svg">
<path d="M13.25 8H8V2.75C8 2.3 7.7 2 7.25 2C3.5 2 0.5 5 0.5 8.75C0.5 12.5 3.5 15.5 7.25 15.5C11 15.5 14 12.5 14 8.75C14 8.3 13.7 8 13.25 8ZM8 13.925C5.15 14.375 2.45 12.35 2.075 9.5C1.625 6.65 3.65 3.95 6.5 3.575V8.75C6.5 9.2 6.8 9.5 7.25 9.5H12.425C12.125 11.825 10.325 13.625 8 13.925ZM10.25 0.5C9.8 0.5 9.5 0.8 9.5 1.25V5.75C9.5 6.2 9.8 6.5 10.25 6.5H14.75C15.2 6.5 15.5 6.2 15.5 5.75C15.5 2.825 13.175 0.5 10.25 0.5ZM11 5V2.075C12.5 2.375 13.625 3.5 13.925 5H11Z" fill="black"/>
</svg>
